# xmcd
#
# Track frame offsets:
#	150
#	15083
#	28216
#	45387
#	62411
#	91598
#	108378
#	132063
#	157452
#	170907
#	191035
#	213178
#	232112
#	251598
#	263871
#	270254
#
# Disc length: 3926 seconds
#
# Revision: 1
# Processed by: cddbd v1.5.1PL2 Copyright (c) Steve Scherf et al.
# Submitted via: audiograbber 1.83.01
#
DISCID=d40f5410
DTITLE=Válogatás - 100% Blues
DYEAR=2003
DGENRE=Blues
TTITLE0=TTDBB - Szegény ember Blues
TTITLE1=Beatrice - Topis Blues
TTITLE2=Deák Bill Gyula - Kõbánya Blues 
TTITLE3=HBB. - Közép-Európai Blues 2.
TTITLE4=Deák Bill Gyula - Közép-Európai Blues 3. 
TTITLE5=LGT. - Sziszifuszi Blues
TTITLE6=HBB. - Rolling Stones Blues
TTITLE7=Berki Team - Békés Express Blues
TTITLE8=Zámbó Jimmy - Füstös éjszaka blues
TTITLE9=HBB. - 3.20-as blues
TTITLE10=Tátrai Tibor - Szegény madárka blues
TTITLE11=LGT. - Banális blues 
TTITLE12=HBB. - Országút blues
TTITLE13=Muszty-Dobay - Szalmonella blues
TTITLE14=P.Mobil - Alkohol blues
TTITLE15=Deák Bill Gyula - Mindhalálig blues
EXTD=
EXTT0=
EXTT1=
EXTT2=
EXTT3=
EXTT4=
EXTT5=
EXTT6=
EXTT7=
EXTT8=
EXTT9=
EXTT10=
EXTT11=
EXTT12=
EXTT13=
EXTT14=
EXTT15=
PLAYORDER=
